PathFileType	4	(X/Y/Z)	D:\Share\Shared_Data\Ergonomics\Sit To Stand Pertubation\S1\Perturbed_NoHarness.trc
DataRate	CameraRate	NumFrames	NumMarkers	Units	OrigDataRate	OrigDataStartFrame	OrigNumFrames	
100	100	13	18	m	100	9570	191
Frame#	Time	L_ASIS			R_ASIS			R_Pelvis			V_Sacral			L_Pelvis			Clavical			R_Acromium			L_Acromium			Sternum			Torso			R_Thigh_Med			R_Thigh_Lat			R_Thigh			R_Shank_Med			R_Shank_Lat			R_Shank			R_Heel			R_Toe			
		X1	Y1	Z1	X2	Y2	Z2	X3	Y3	Z3	X4	Y4	Z4	X5	Y5	Z5	X6	Y6	Z6	X7	Y7	Z7	X8	Y8	Z8	X9	Y9	Z9	X10	Y10	Z10	X11	Y11	Z11	X12	Y12	Z12	X13	Y13	Z13	X14	Y14	Z14	X15	Y15	Z15	X16	Y16	Z16	X17	Y17	Z17	X18	Y18	Z18	

9570	95.69	0.28455933	0.74025867	-0.091971596	0.26529013	0.73470093	0.10641428	0.18742673	0.76807025	0.14651791	0.071846802	0.73833459	0.0022061627	0.19221407	0.76024512	-0.13976987	0.45000922	1.0206728	-0.006249814	0.42509406	1.1255079	0.13248238	0.36820331	1.098323	-0.20857161	0.4383537	1.0486355	0.091366577	0.44499887	1.032828	-0.060848183	0.43374564	0.39673376	0.018170118	0.45017432	0.42038474	0.13750854	0.38564355	0.58072711	0.094483963	0.35974057	0.089411034	0.09121241	0.34119916	0.099079002	0.17219153	0.40544339	0.300526	0.16710822	0.28336987	0.034728649	0.12665358	0.48851059	0.044716801	0.13419829
9571	95.7	0.28906345	0.74688513	-0.092174156	0.26974551	0.74087042	0.10608411	0.19174803	0.77364233	0.14648642	0.076695915	0.74480701	0.001552349	0.19666652	0.76608588	-0.14067117	0.44971924	1.030782	-0.0063103962	0.42378806	1.1347976	0.13272586	0.36671021	1.1066934	-0.20886743	0.43832318	1.0581661	0.091466171	0.44487918	1.0425117	-0.060952553	0.43393402	0.39689468	0.018560623	0.45066302	0.42057571	0.13783427	0.38904102	0.58184167	0.094255814	0.35974139	0.089470009	0.091302246	0.34112778	0.099060158	0.17226088	0.4053653	0.30049286	0.16745584	0.2833562	0.034715862	0.12664939	0.48848279	0.044684551	0.13420976
9572	95.71	0.29358902	0.75353412	-0.092407562	0.27419705	0.74704065	0.10571246	0.19605785	0.77920538	0.14635796	0.08154612	0.75135425	0.00075776273	0.20114226	0.77195618	-0.1416543	0.44938901	1.0408142	-0.0064120092	0.42250671	1.1440184	0.13291843	0.36511615	1.114991	-0.2091268	0.43822256	1.0676409	0.091525314	0.44467145	1.0521261	-0.061092896	0.43395691	0.39710858	0.018973167	0.45096915	0.42081174	0.13819173	0.39232251	0.58305139	0.094072937	0.35972992	0.089539207	0.091404449	0.34103052	0.099045288	0.17234067	0.40516373	0.30049847	0.1678257	0.28333929	0.034698845	0.12664697	0.48845349	0.044671494	0.13422929
9573	95.72	0.29812912	0.76019928	-0.092670753	0.27864328	0.75321216	0.10530811	0.20035954	0.78474786	0.14613289	0.086397316	0.75796027	-0.00016103287	0.2056389	0.77785291	-0.14269821	0.44903729	1.0507404	-0.0065525589	0.42125601	1.1531493	0.13306265	0.36345465	1.123191	-0.20933096	0.43806271	1.077038	0.091548149	0.44438882	1.0616527	-0.061268379	0.43380524	0.39737512	0.019397152	0.45109262	0.42109515	0.13856949	0.39548459	0.58435718	0.093929993	0.35970419	0.089618958	0.091516975	0.34090924	0.099035896	0.17242964	0.40484082	0.30054434	0.16821083	0.28331946	0.034678612	0.12664686	0.48842288	0.044679699	0.13425731
9574	95.73	0.30267606	0.76687244	-0.092962723	0.28308307	0.75938495	0.10487971	0.20465695	0.79025806	0.14581268	0.091250961	0.76460205	-0.0011791815	0.2101541	0.78377045	-0.14377724	0.44867932	1.0605359	-0.0067283864	0.42003821	1.1621697	0.13316319	0.36176096	1.1312712	-0.20946179	0.43785413	1.0863362	0.0915401	0.44404517	1.0710747	-0.061476841	0.43347141	0.39769354	0.019823257	0.45103464	0.42142764	0.13895715	0.39852402	0.58575659	0.093820839	0.35966226	0.089709671	0.091637794	0.3407662	0.099033195	0.17252657	0.40439917	0.3006311	0.16860506	0.283297	0.034655903	0.12664935	0.48839114	0.044710327	0.13429378
9575	95.74	0.30722208	0.77354358	-0.093282585	0.2875155	0.76555847	0.10443533	0.20895419	0.79572437	0.14540056	0.096110207	0.77125085	-0.0022642834	0.21468553	0.78970123	-0.14486266	0.44832669	1.0701793	-0.0069346256	0.41885248	1.1710599	0.13322653	0.36006998	1.1392136	-0.20950412	0.43760638	1.095515	0.091507393	0.44365442	1.0803771	-0.06171505	0.43294989	0.39806256	0.020244057	0.45079761	0.42181021	0.13934593	0.4014375	0.58724408	0.093739655	0.35960214	0.089811798	0.091764984	0.34060352	0.099038101	0.17263048	0.40384207	0.30075873	0.16900336	0.28327225	0.034631161	0.12665433	0.48835852	0.044763561	0.1343382
9576	95.75	0.31175906	0.78020074	-0.093629677	0.29193991	0.77173102	0.10398214	0.21325542	0.80113611	0.14490179	0.10097955	0.7778725	-0.0033780382	0.21923061	0.79563525	-0.14592442	0.44798712	1.0796533	-0.0071655993	0.41769522	1.1798007	0.1332603	0.35841422	1.1470031	-0.20944815	0.43732785	1.1045558	0.09145665	0.4432305	1.0895458	-0.06197905	0.43223727	0.39848038	0.020654482	0.45038522	0.4222431	0.13972903	0.40422205	0.58881232	0.093681458	0.35952191	0.089925919	0.091896873	0.34042331	0.099051109	0.17274052	0.40317346	0.30092639	0.16940205	0.28324545	0.034604515	0.12666145	0.48832513	0.044838593	0.1343895
9577	95.76	0.31627914	0.78682947	-0.094003494	0.29635605	0.77789935	0.10352628	0.21756458	0.80648431	0.14432448	0.10586431	0.78442975	-0.0044787431	0.2237865	0.80156018	-0.14693356	0.44766525	1.0889432	-0.007415236	0.41656058	1.1883734	0.13327281	0.35682172	1.1546309	-0.20929117	0.4370253	1.1134397	0.091394424	0.44278702	1.0985673	-0.062264469	0.43133228	0.39894495	0.021052149	0.44980191	0.42272586	0.1401021	0.406875	0.59045251	0.093642662	0.3594198	0.09005262	0.09203212	0.34022754	0.099072319	0.1728562	0.40239774	0.30113269	0.16979906	0.28321686	0.034575832	0.12667007	0.48829123	0.044933662	0.13444621
9578	95.77	0.3207746	0.79341345	-0.094403687	0.30076376	0.7840589	0.10307272	0.22188521	0.81176184	0.1436796	0.11076994	0.79088464	-0.0055244589	0.22834985	0.80746124	-0.14786426	0.44736285	1.0980378	-0.0076774497	0.41544135	1.196761	0.13327255	0.35531473	1.1620922	-0.2090387	0.43670389	1.12215	0.091326714	0.44233652	1.1074293	-0.062566883	0.43023581	0.39945355	0.021437498	0.44905316	0.42325717	0.14046315	0.40939444	0.59215503	0.093621094	0.35929416	0.090192558	0.092169678	0.34001804	0.099101395	0.17297728	0.40151956	0.30137546	0.17019392	0.28318674	0.034544693	0.12667933	0.48825681	0.045046192	0.13450661
9579	95.78	0.32523801	0.79993488	-0.094829994	0.30516293	0.79020331	0.10262523	0.22622002	0.81696411	0.14298103	0.11570111	0.79720142	-0.0064765077	0.23291656	0.81332208	-0.14869582	0.44707935	1.1069271	-0.0079464817	0.41432907	1.2049473	0.13326758	0.35390881	1.1693864	-0.20870424	0.43636713	1.1306716	0.09125869	0.44189066	1.11612	-0.06288208	0.42895081	0.4000032	0.021813784	0.44814481	0.42383505	0.1408125	0.41177911	0.59390955	0.093615814	0.35914383	0.090346382	0.092308952	0.33979626	0.099137596	0.17310379	0.40054407	0.3016521	0.17058766	0.28315524	0.034510506	0.12668816	0.48822177	0.045172939	0.1345688
9580	95.79	0.32966275	0.8063739	-0.095282104	0.30955356	0.79632465	0.10218642	0.23057077	0.82208844	0.14224551	0.12066089	0.80334869	-0.0073028769	0.23748181	0.81912433	-0.14941431	0.44681265	1.1156029	-0.008217165	0.4132153	1.2129165	0.13326511	0.35261246	1.1765156	-0.20830827	0.43601721	1.1389897	0.091194405	0.44145938	1.1246274	-0.063206352	0.42748193	0.40059039	0.022186888	0.44708322	0.42445685	0.14115262	0.41402905	0.59570441	0.093626556	0.35896808	0.090514679	0.092449615	0.33956375	0.099179924	0.17323593	0.39947647	0.30195956	0.17098253	0.28312244	0.034472603	0.12669537	0.488186	0.0453102	0.13463086
9581	95.8	0.33404254	0.81270996	-0.095759521	0.31393536	0.80241266	0.10175792	0.23493796	0.82713422	0.14149181	0.12564997	0.80930225	-0.0079810553	0.24204002	0.82484888	-0.15001346	0.44655963	1.124057	-0.0084851284	0.41209189	1.2206548	0.13327119	0.35142783	1.1834827	-0.2078764	0.43565536	1.147092	0.09113665	0.44105136	1.1329404	-0.063536606	0.42583521	0.40121115	0.022564955	0.44587521	0.42511935	0.14148755	0.41614575	0.59752667	0.093653198	0.35876663	0.090697998	0.092591583	0.33932184	0.099227142	0.17337401	0.39832214	0.3022944	0.17138184	0.28308847	0.034430397	0.12669979	0.48814941	0.045453934	0.1346911
9582	95.81	0.33837222	0.81892206	-0.096261383	0.31830795	0.80845514	0.1013403	0.23932071	0.83210162	0.14073994	0.1306662	0.81504602	-0.0084999104	0.2465849	0.83047607	-0.150495	0.44631665	1.1322821	-0.0087469149	0.41095139	1.2281492	0.13329045	0.35035135	1.1902903	-0.20743658	0.43528207	1.1549663	0.09108683	0.44067325	1.1410469	-0.063870506	0.42401804	0.40186105	0.02295789	0.44452774	0.42581882	0.14182256	0.41813211	0.59936145	0.09369503	0.35853992	0.090896675	0.092734924	0.33907181	0.099277969	0.17351831	0.39708661	0.30265308	0.17178943	0.28305341	0.034383541	0.12670045	0.48811185	0.045599998	0.13474809
